<svg width="52" height="52" viewBox="0 0 52 52" fill="none" xmlns="http://www.w3.org/2000/svg">
<path d="M14.4082 18.4441C14.4082 18.4441 12.5449 19.5628 12.1296 21.4023C11.7144 23.2418 12.1296 25.2561 12.1296 25.2561C12.1296 25.2561 9.20752 26.4615 9.20752 30.2524C9.20752 34.0434 11.6725 35.1151 11.6725 35.1151C11.6725 35.1151 11.7014 39.5893 14.4595 42.0023C17.2177 44.4152 20.1116 44.4268 20.1116 44.4268C20.1116 44.4268 21.6167 47.6103 26.0447 47.6103C30.4726 47.6103 31.9785 44.4268 31.9785 44.4268C31.9785 44.4268 34.9757 43.9891 37.6306 42.0023C40.2855 40.0162 40.2125 35.1151 40.2125 35.1151C40.2125 35.1151 42.8826 34.0441 42.8826 30.2524C42.8826 26.4608 39.9597 25.2568 39.9597 25.2568C39.9597 25.2568 40.3765 23.2418 39.9597 21.4023C39.543 19.5628 37.6811 18.4441 37.6811 18.4441" fill="#B22EC8"/>
<path d="M40.0457 24.1423C40.0457 16.4008 33.7696 14.2205 26.0289 14.2205C18.2881 14.2205 12.012 16.4016 12.012 24.1423C12.012 31.8831 18.2881 38.1592 26.0289 38.1592C33.7696 38.1592 40.0457 31.8831 40.0457 24.1423Z" fill="#B22EC8"/>
<path d="M26.4746 47.6002C26.4746 47.6002 30.2648 44.9497 30.0171 38.8534C31.6472 37.1576 32.1527 34.879 30.6722 32.11C33.1732 28.5451 32.9132 24.6885 29.9211 21.7649C31.1539 19.9853 30.5089 18.4441 29.1151 17.2864C29.1151 17.2864 33.127 19.2537 36.2001 16.4407C36.2001 16.4407 42.6589 21.0846 39.9599 25.2568C39.9599 25.2568 47.0912 30.0762 40.2127 35.1152C40.2127 35.1152 41.2173 42.796 32.1527 44.3957C32.1527 44.3957 29.7665 47.0968 26.4746 47.6002V47.6002Z" fill="#6A107A"/>
<path d="M40.2856 8.13375C37.2017 22.5255 27.737 17.6187 26.4507 15.088C25.1652 12.5566 26.4074 2.47947 40.2856 8.13302V8.13375Z" fill="#0F805D"/>
<path d="M11.804 8.13375C14.8878 22.5255 24.3526 17.6187 25.6388 15.088C26.9244 12.5566 25.6822 2.47947 11.804 8.13302V8.13375Z" fill="#0F805D"/>
<path d="M40.2854 8.13375C37.2015 22.5255 27.7368 17.6187 26.4505 15.088C25.1649 12.5566 26.4072 2.47947 40.2854 8.13302V8.13375Z" stroke="black" stroke-width="2" stroke-miterlimit="10" stroke-linecap="round" stroke-linejoin="round"/>
<path d="M32.9131 11.0457C30.6525 11.9139 27.7571 13.3099 26.4745 15.1299M11.804 8.13375C14.8878 22.5255 24.3526 17.6187 25.6388 15.088C26.9244 12.5566 25.6822 2.47947 11.804 8.13302V8.13375Z" stroke="black" stroke-width="2" stroke-miterlimit="10" stroke-linecap="round" stroke-linejoin="round"/>
<path d="M19.1764 11.0457C21.4376 11.9138 24.3323 13.3098 25.615 15.1298M14.4082 18.4441C14.4082 18.4441 12.5449 19.5628 12.1296 21.4023C11.7144 23.2418 12.1296 25.2561 12.1296 25.2561C12.1296 25.2561 9.20752 26.4615 9.20752 30.2524C9.20752 34.0434 11.6725 35.1152 11.6725 35.1152C11.6725 35.1152 11.7014 39.5893 14.4595 42.0023C17.2177 44.4152 20.1116 44.4268 20.1116 44.4268C20.1116 44.4268 21.6167 47.6103 26.0447 47.6103C30.4726 47.6103 31.9785 44.4268 31.9785 44.4268C31.9785 44.4268 34.9757 43.9891 37.6306 42.0023C40.2855 40.0162 40.2125 35.1152 40.2125 35.1152C40.2125 35.1152 42.8826 34.0441 42.8826 30.2524C42.8826 26.4608 39.9597 25.2568 39.9597 25.2568C39.9597 25.2568 40.3765 23.2418 39.9597 21.4023C39.543 19.5628 37.6811 18.4441 37.6811 18.4441" stroke="black" stroke-width="2" stroke-miterlimit="10" stroke-linecap="round" stroke-linejoin="round"/>
<path d="M30.5087 21.2876C30.5087 21.2876 28.6194 23.286 26.288 23.286M21.9063 21.2876C21.9063 21.2876 23.7956 23.286 26.127 23.286M36.1558 28.5452C36.1558 30.6339 34.3632 32.3268 32.1525 32.3268M27.9954 28.5452C27.9954 30.6339 29.7879 32.3268 31.9986 32.3268M24.4709 28.5452C24.4709 30.6339 22.6784 32.3268 20.4669 32.3268M16.3098 28.5452C16.3098 30.6339 18.1024 32.3268 20.3138 32.3268M30.2646 38.9004C29.5106 39.9036 27.9824 40.5897 26.2194 40.5897M21.9128 38.7777C22.6314 39.8465 24.2116 40.5897 26.0454 40.5897M21.876 39.0362C21.876 39.9318 21.3206 40.7399 20.433 41.3069M30.3079 39.0362C30.3079 40.0134 30.9673 40.8851 31.9986 41.4542" stroke="black" stroke-width="2" stroke-miterlimit="10" stroke-linecap="round" stroke-linejoin="round"/>
<path d="M16.9078 30.8187C16.9078 32.5274 15.7082 33.9712 14.0608 34.4399M18.0641 21.2622C18.0641 23.4975 16.2715 25.3103 14.0601 25.3103M33.4914 21.2622C33.4914 23.4975 35.284 25.3103 37.4954 25.3103M35.57 30.8187C35.57 32.4509 36.6649 33.8412 38.1989 34.372" stroke="black" stroke-width="2" stroke-miterlimit="10" stroke-linecap="round" stroke-linejoin="round"/>
</svg>
