<svg width="64" height="36" viewBox="0 0 64 36" fill="none" xmlns="http://www.w3.org/2000/svg">
<path d="M63.3612 31.12C62.7479 31.12 62.2946 31.0266 62.0012 30.84C61.7079 30.6533 61.5612 30.3066 61.5612 29.8C61.5612 29 61.4279 27.64 61.1612 25.72L61.0012 24.88L57.0412 24.28C56.8812 24.8933 56.6546 26.1333 56.3612 28C56.2012 29.3066 55.9479 30.1733 55.6012 30.6C55.4146 30.84 55.1479 30.96 54.8012 30.96C54.4812 30.96 54.1879 30.8666 53.9212 30.68C53.6546 30.4666 53.5212 30.2133 53.5212 29.92L53.6012 29.72L53.6412 29.56C55.4012 22.7066 56.7346 15.9466 57.6412 9.27996C57.6412 9.1733 57.6546 8.99996 57.6812 8.75996C57.7079 8.4933 57.7346 8.11996 57.7612 7.63996C57.8412 6.65329 57.9212 5.86663 58.0012 5.27996C58.1079 4.69329 58.2679 4.25329 58.4812 3.95996H59.8412C60.2146 3.95996 60.5346 4.05329 60.8012 4.23996C61.0679 4.39996 61.2012 4.63996 61.2012 4.95996C61.2012 6.98663 61.4812 9.99996 62.0412 14C62.5746 18.1066 62.8412 20.9866 62.8412 22.64C62.8412 22.8 62.9079 23.2133 63.0412 23.88C63.1746 24.4933 63.2412 24.8933 63.2412 25.08C63.2412 25.2666 63.3746 26.0666 63.6412 27.48C63.8812 28.76 64.0012 29.5866 64.0012 29.96V30C64.0012 30.5866 63.7879 30.96 63.3612 31.12ZM60.7212 23.44C60.6412 23.04 60.6012 22.5466 60.6012 21.96C60.6012 19.56 60.3879 16.4933 59.9612 12.76L59.5612 8.59996C58.4146 14.8666 57.6279 19.6 57.2012 22.8C57.6012 23.0666 58.7746 23.28 60.7212 23.44Z" fill="#0F805D"/>
<path d="M52.0864 35.6799C51.873 35.7333 51.713 35.7599 51.6064 35.7599C51.2864 35.7599 51.0597 35.5599 50.9264 35.1599C50.8197 34.8399 50.7664 34.4399 50.7664 33.9599L50.8064 31.1999C50.8064 31.0399 50.793 30.8933 50.7664 30.7599C50.7397 30.6266 50.713 30.4933 50.6864 30.3599H46.0864C46.353 30.3599 45.713 30.4933 44.1664 30.7599C42.6464 30.9999 41.4597 31.1599 40.6064 31.2399L38.8064 31.3999L36.8064 31.5999C36.8064 31.8399 36.8064 32.1333 36.8064 32.4799C36.833 32.8266 36.833 33.2399 36.8064 33.7199V33.9199C36.8064 34.3466 36.6997 34.6666 36.4864 34.8799C36.273 35.0933 36.073 35.1999 35.8864 35.1999C35.7797 35.1999 35.6197 35.1466 35.4064 35.0399C34.9264 34.6933 34.6597 34.2133 34.6064 33.5999L34.4864 30.6799C34.433 29.6399 34.8597 29.1199 35.7664 29.1199C36.273 29.0933 36.673 28.9599 36.9664 28.7199C37.2597 28.4799 37.6064 28.1066 38.0064 27.5999C38.4064 27.0666 38.713 26.4799 38.9264 25.8399C39.1664 25.1733 39.393 24.3733 39.6064 23.4399C39.8464 22.4266 40.0197 21.4399 40.1264 20.4799C40.233 19.5199 40.3664 18.1466 40.5264 16.3599C40.7664 13.5599 40.8864 10.7466 40.8864 7.91993L40.8464 5.67993C40.8464 5.17327 40.993 4.75993 41.2864 4.43993C41.5797 4.09327 41.9797 3.91993 42.4864 3.91993C42.6464 3.91993 42.7664 3.93327 42.8464 3.95993C44.073 4.17326 45.073 4.3066 45.8464 4.35993H46.0464C46.393 4.35993 46.593 4.29327 46.6464 4.15993C46.8864 3.83993 47.1797 3.67993 47.5264 3.67993C47.7664 3.67993 47.9797 3.73326 48.1664 3.83993C48.593 3.99993 48.873 4.39993 49.0064 5.03993L48.8064 11.8799C48.8064 15.5866 48.8197 18.3599 48.8464 20.1999C48.8464 21.1599 48.873 22.6266 48.9264 24.5999L48.9664 26.7999C48.9664 27.0133 48.9797 27.2133 49.0064 27.3999C49.033 27.5866 49.0597 27.7733 49.0864 27.9599C49.6197 28.0133 50.0197 28.0399 50.2864 28.0399C50.4997 28.0399 50.6597 28.0266 50.7664 27.9999C51.353 27.9199 51.873 28.0666 52.3264 28.4399C52.8064 28.7866 53.0464 29.2399 53.0464 29.7999C53.0464 30.5199 52.993 31.5999 52.8864 33.0399C52.8864 33.4133 52.8597 33.9466 52.8064 34.6399C52.753 35.1999 52.513 35.5466 52.0864 35.6799ZM40.5664 29.3199C42.0597 29.1866 43.233 29.0666 44.0864 28.9599C44.9664 28.8266 45.833 28.6266 46.6864 28.3599C46.953 25.1333 47.0864 21.6799 47.0864 17.9999C47.0864 14.5866 46.953 10.8399 46.6864 6.75993C45.993 6.73327 44.6997 6.6666 42.8064 6.55993L42.7664 8.43993C42.553 12.5466 42.4064 15.6133 42.3264 17.6399C42.2197 20.6799 41.6997 23.6666 40.7664 26.5999C40.713 26.7599 40.593 27.1599 40.4064 27.7999C40.2464 28.4133 39.993 28.9466 39.6464 29.3999L40.5664 29.3199Z" fill="#0F805D"/>
<path d="M28.4034 31.52C27.7101 31.52 27.0701 31.2933 26.4834 30.84C25.8967 30.4133 25.4167 29.8266 25.0434 29.08C24.2701 27.4533 23.7901 25.68 23.6034 23.76C23.3634 21.9466 23.2434 20.2 23.2434 18.52C23.2434 18.2 23.2567 17.9333 23.2834 17.72V17C23.2834 16.8666 23.2701 16.8 23.2434 16.8V16.08L23.2834 13.28C23.3101 12.4266 23.4167 11.0666 23.6034 9.19997C23.7367 7.91997 24.0434 6.67997 24.5234 5.47997C24.7101 4.94663 24.9501 4.54663 25.2434 4.27997C25.5367 3.98663 25.8701 3.83997 26.2434 3.83997C27.3101 3.83997 28.2701 4.03997 29.1234 4.43997C29.9767 4.8133 30.6967 5.34663 31.2834 6.03997C31.8167 6.70663 32.2701 7.5333 32.6434 8.51997C33.0167 9.47997 33.2834 10.5066 33.4434 11.6C33.6034 12.72 33.6834 13.9066 33.6834 15.16V15.48C33.6834 16.3066 33.6967 17.0533 33.7234 17.72L33.7634 20C33.7634 27.68 31.9767 31.52 28.4034 31.52ZM28.2434 29.84C28.7234 29.84 29.1634 29.6533 29.5634 29.28C29.9634 28.88 30.2701 28.3466 30.4834 27.68C30.9901 26.32 31.2967 24.8533 31.4034 23.28C31.5367 21.92 31.6034 20.7466 31.6034 19.76C31.6034 18.56 31.5101 16.9866 31.3234 15.04C31.1634 12.9866 31.0834 11.4533 31.0834 10.44V9.71997C31.0301 8.70663 30.6834 7.82663 30.0434 7.07997C29.4301 6.3333 28.6701 5.95997 27.7634 5.95997C26.8567 5.95997 26.2567 6.47997 25.9634 7.51997C25.6967 8.34663 25.5634 9.4133 25.5634 10.72C25.5634 11.2266 25.5767 11.6533 25.6034 12V13.08L25.5234 14.92C25.4701 15.48 25.4434 16.0933 25.4434 16.76C25.4434 18.2 25.4834 19.6266 25.5634 21.04C25.6701 23.04 25.9367 24.9866 26.3634 26.88C26.7901 28.8533 27.4167 29.84 28.2434 29.84Z" fill="#0F805D"/>
<path d="M14.6302 31.08C14.6035 30.9733 14.5502 30.7866 14.4702 30.52C14.4169 30.2533 14.4035 30.0266 14.4302 29.84C14.4835 26.7466 14.5635 24.44 14.6702 22.92C14.6969 22.36 14.7102 21.5333 14.7102 20.44C14.7102 18.4666 14.6169 16.08 14.4302 13.28C14.2702 9.86663 14.1902 7.27996 14.1902 5.51996C14.1902 5.11996 14.3502 4.75996 14.6702 4.43996C14.9902 4.11996 15.3769 3.95996 15.8302 3.95996C17.3502 3.95996 18.6702 4.07996 19.7902 4.31996C20.3235 4.42663 20.6702 4.61329 20.8302 4.87996C20.9902 5.11996 21.0435 5.53329 20.9902 6.11996C20.6169 6.35996 20.2302 6.47996 19.8302 6.47996C19.6969 6.47996 19.4969 6.45329 19.2302 6.39996C18.9902 6.34663 18.3502 6.29329 17.3102 6.23996H17.2302C16.8569 6.23996 16.6702 6.43996 16.6702 6.83996C16.5369 10.7066 16.4702 12.9066 16.4702 13.44C16.5235 16.2133 16.5769 18.3066 16.6302 19.72C16.6302 19.9066 16.6435 20.1333 16.6702 20.4C16.6969 20.6666 16.6969 20.8933 16.6702 21.08C16.5902 22.3066 16.5502 23.6 16.5502 24.96C16.5502 27.1733 16.5902 28.72 16.6702 29.6C16.6435 30.1866 16.5502 30.5866 16.3902 30.8C16.2302 31.04 15.9369 31.16 15.5102 31.16C15.4035 31.16 15.1102 31.1333 14.6302 31.08Z" fill="#0F805D"/>
<path d="M8.67273 30.96C8.05939 30.96 7.69939 30.6533 7.59273 30.04C7.45939 29.0267 7.39273 28.0667 7.39273 27.16C7.31273 25.1067 7.24606 22.9733 7.19273 20.76C7.16606 18.52 7.15273 16.8933 7.15273 15.88C6.56606 16.1467 6.09939 16.52 5.75273 17C5.43273 17.4533 5.12606 18.04 4.83273 18.76C4.35273 20.0667 4.11273 21.36 4.11273 22.64V23.64C4.11273 23.8 4.09939 24.2933 4.07273 25.12C4.04606 25.9467 3.96606 26.8533 3.83273 27.84C3.67273 29.1733 3.00606 30.1733 1.83273 30.84C1.64606 30.9467 1.40606 31 1.11273 31C0.766061 31 0.472727 30.92 0.232727 30.76C0.0193939 30.5733 -0.0472727 30.32 0.0327273 30C0.0860606 29.8133 0.166061 29.68 0.272727 29.6C0.379394 29.52 0.526061 29.44 0.712727 29.36C0.926061 29.28 1.08606 29.2 1.19273 29.12C1.59273 28.7467 1.79273 28.24 1.79273 27.6L1.83273 24.24C1.88606 22.9333 1.95273 21.9333 2.03273 21.24C2.11273 20.52 2.31273 19.6933 2.63273 18.76C2.73939 18.4133 2.99273 17.8667 3.39273 17.12C3.79273 16.3467 4.08606 15.8533 4.27273 15.64C2.85939 14.9467 1.87273 14.08 1.31273 13.04C0.779394 12 0.512727 10.48 0.512727 8.47999C0.512727 6.90665 0.792727 5.35999 1.35273 3.83999C1.91273 2.34666 2.83273 1.39999 4.11273 0.99999L5.87273 0.399988C6.11273 0.293323 6.37939 0.23999 6.67273 0.23999C7.23273 0.23999 7.87273 0.479989 8.59273 0.959988C9.04606 1.22666 9.27273 1.66666 9.27273 2.27999C9.11273 4.51999 9.03273 6.21332 9.03273 7.35999V8.83999V12.12V16.24C9.03273 19.0667 9.05939 21.2 9.11273 22.64C9.13939 23.7333 9.17939 24.7067 9.23273 25.56C9.28606 26.4133 9.32606 27.12 9.35273 27.68L9.47273 29.88V30.12C9.47273 30.4667 9.41939 30.6933 9.31273 30.8C9.20606 30.9067 8.99273 30.96 8.67273 30.96ZM6.99273 1.91999C6.85939 1.97332 6.55273 2.07999 6.07273 2.23999C5.61939 2.39999 5.21939 2.58666 4.87273 2.79999C4.47273 2.98666 4.09939 3.38666 3.75273 3.99999C3.43273 4.58666 3.17939 5.21332 2.99273 5.87999C2.80606 6.54666 2.72606 7.05332 2.75273 7.39999L2.83273 9.15999C2.83273 9.98666 2.84606 10.64 2.87273 11.12C2.89939 11.8667 3.11273 12.4933 3.51273 13C3.93939 13.48 4.52606 13.8133 5.27273 14C5.56606 14.08 5.89939 14.2 6.27273 14.36C6.67273 14.4933 6.96606 14.6 7.15273 14.68L6.99273 1.91999Z" fill="#0F805D"/>
</svg>
